<?xml version="1.0" standalone="no"?>
<!DOCTYPE svg PUBLIC "-//W3C//DTD SVG 20010904//EN"
 "http://www.w3.org/TR/2001/REC-SVG-20010904/DTD/svg10.dtd">
<svg version="1.0" xmlns="http://www.w3.org/2000/svg"
 width="256.000000pt" height="256.000000pt" viewBox="0 0 256.000000 256.000000"
 preserveAspectRatio="xMidYMid meet">
<metadata>
Created by potrace 1.11, written by Peter Selinger 2001-2013
</metadata>
<g transform="translate(0.000000,256.000000) scale(0.100000,-0.100000)"
fill="#000000" stroke="none">
<path d="M1060 2390 c0 -20 5 -26 72 -80 42 -35 58 -87 63 -205 l3 -75 -186 1
c-230 0 -280 12 -327 76 -30 41 -72 70 -84 58 -3 -4 -6 -103 -7 -221 l0 -214
22 0 c16 0 34 14 56 45 57 77 104 88 368 89 l155 1 1 -140 c0 -77 -1 -145 -3
-152 -3 -8 -76 -11 -271 -9 -294 3 -339 11 -377 63 -36 49 -65 74 -83 71 -15
-3 -17 -23 -17 -221 0 -202 1 -217 18 -217 10 0 28 11 40 24 12 14 35 38 50
55 44 48 85 54 377 57 l266 2 0 -269 c0 -148 -4 -269 -8 -269 -5 0 -16 8 -26
18 -26 26 -134 107 -162 122 -14 7 -27 16 -30 20 -11 16 -179 90 -239 106
-184 47 -372 -5 -498 -138 -184 -195 -176 -522 18 -700 175 -160 400 -178 649
-53 84 42 213 135 307 220 l75 68 41 -40 c64 -61 89 -83 127 -111 19 -15 37
-29 40 -32 32 -35 206 -128 300 -161 94 -33 259 -32 345 1 216 83 339 276 322
502 -7 90 -20 136 -60 211 -35 67 -127 157 -196 191 -223 114 -453 64 -747
-160 -46 -35 -85 -64 -87 -64 -2 0 -3 120 -2 267 l0 268 265 0 c289 0 343 -8
383 -53 109 -123 106 -126 109 129 2 116 0 216 -3 221 -11 18 -48 -2 -77 -40
-60 -81 -79 -85 -408 -88 l-270 -2 0 152 1 151 190 -1 c116 -1 207 -6 234 -13
41 -12 77 -41 123 -99 10 -12 28 -22 40 -22 l23 0 -1 215 c-1 119 -4 218 -6
221 -12 12 -57 -18 -78 -52 -42 -68 -84 -78 -321 -82 l-207 -4 3 79 c5 136 18
165 116 247 10 9 19 25 19 36 0 19 -7 20 -220 20 -213 0 -220 -1 -220 -20z
m-366 -1425 c124 -32 269 -123 410 -256 l67 -62 -57 -54 c-283 -268 -541 -346
-713 -216 -49 37 -54 43 -84 89 -33 54 -48 111 -48 188 0 222 201 369 425 311z
m1423 -25 c109 -54 172 -157 175 -285 4 -190 -123 -327 -313 -339 -57 -3 -170
23 -223 52 -116 62 -219 137 -314 228 l-53 51 72 67 c261 241 475 315 656 226z"/>
</g>
</svg>
